<?xml version="1.0" encoding="UTF-8"?>
<svg width="115px" height="115px" viewBox="0 0 115 115" version="1.1" xmlns="http://www.w3.org/2000/svg" xmlns:xlink="http://www.w3.org/1999/xlink">
    <!-- Generator: Sketch 53.2 (72643) - https://sketchapp.com -->
    <title>Group</title>
    <desc>Created with Sketch.</desc>
    <g id="Page-1" stroke="none" stroke-width="1" fill="none" fill-rule="evenodd">
        <g id="Group" transform="translate(0.748647, 0.585320)">
            <circle id="Oval" fill="#26C16D" fill-rule="nonzero" cx="56.94" cy="56.94" r="56.94"></circle>
            <path d="M27.3713525,84.7446798 C27.3713525,84.7446798 29.2513525,89.4746798 36.2513525,90.4146798 C43.2513525,91.3546798 39.7913525,81.1946798 60.4713525,80.4846798 C75.0313525,79.9846798 60.5513525,91.9846798 63.7113525,92.6246798 C66.8713525,93.2646798 74.7113525,92.3046798 79.1713525,81.8946798 C83.6313525,71.4846798 84.5313525,44.9746798 75.3813525,36.4546798 C66.2313525,27.9346798 39.3813525,28.2446798 35.3113525,35.8246798 C31.2413525,43.4046798 34.0413525,56.6446798 30.3113525,63.9046798 C26.5813525,71.1646798 24.8413525,80.9546798 27.3713525,84.7446798 Z" id="Path" stroke="#263238" fill="#263238" fill-rule="nonzero" stroke-linecap="round" stroke-linejoin="round"></path>
            <path d="M36.2513525,60.4146798 C36.2513525,60.4146798 33.7313525,53.7846798 32.7813525,58.5246798 C31.8313525,63.2646798 32.7813525,67.9846798 34.9913525,69.8846798 C37.2013525,71.7846798 38.4613525,71.4546798 38.4613525,71.4546798 L36.2513525,60.4146798 Z" id="Path" stroke="#263238" fill="#FFFFFF" fill-rule="nonzero" stroke-linecap="round" stroke-linejoin="round"></path>
            <path d="M46.1813525,26.6446798 C46.1813525,26.6446798 40.8513525,27.9746798 37.2913525,37.7546798 C33.7313525,47.5346798 36.5113525,73.2346798 38.7313525,75.9046798 C40.9513525,78.5746798 48.3413525,89.6646798 55.4513525,90.1046798 C59.9813525,90.3846798 71.3413525,79.9746798 73.1213525,74.6446798 C74.9013525,69.3146798 75.5213525,45.3146798 74.1813525,39.5346798 C72.8413525,33.7546798 61.7413525,20.4146798 46.1813525,26.6446798 Z" id="Path" stroke="#263238" fill="#FFFFFF" fill-rule="nonzero" stroke-linecap="round" stroke-linejoin="round"></path>
            <path d="M50.7213525,34.5746798 C50.7213525,34.5746798 42.8313525,32.4146798 39.6713525,37.4146798 C36.5113525,42.4146798 38.1013525,52.2446798 33.3613525,61.0746798 C28.6213525,69.9046798 31.4713525,83.4746798 32.1013525,85.3746798 C32.7313525,87.2746798 28.0013525,89.7946798 25.4813525,80.3246798 C22.9613525,70.8546798 30.2113525,61.7046798 30.8413525,51.9246798 C31.4713525,42.1446798 29.2513525,31.4146798 39.0413525,25.7346798 C48.8313525,20.0546798 50.7213525,23.5246798 50.7213525,23.5246798 L50.7213525,34.5746798 Z" id="Path" stroke="#263238" fill="#263238" fill-rule="nonzero" stroke-linecap="round" stroke-linejoin="round"></path>
            <path d="M89.5313525,49.4146798 C87.6413525,43.7346798 87.9513525,33.3146798 80.3813525,24.7946798 C75.6313525,19.4546798 66.5513525,16.3546798 59.1013525,16.1746798 C57.9015158,15.926457 56.6717405,15.8557028 55.4513525,15.9646798 C43.4513525,16.9646798 35.8913525,23.2246798 38.1013525,27.9646798 C40.3113525,32.7046798 50.7213525,34.5946798 50.7213525,34.5946798 L52.3013525,35.2246798 C52.2478524,34.6897857 52.2278134,34.1520722 52.2413525,33.6146798 C53.9413525,32.8246798 56.8413525,32.3046798 59.8713525,35.5346798 C65.1462349,41.438951 68.0648992,49.0773089 68.0713525,56.9946798 C67.7613525,68.9946798 73.7513525,73.4046798 73.7513525,78.4546798 C73.7513525,83.5046798 64.9213525,89.8146798 63.0213525,91.3946798 C60.9213525,93.1446798 71.0213525,94.0046798 71.6513525,93.9646798 C81.8213525,93.3346798 88.5813525,86.6946798 92.8213525,77.8346798 C97.8113525,67.4146798 92.7913525,59.1846798 89.5313525,49.4146798 Z" id="Path" stroke="#263238" fill="#263238" fill-rule="nonzero" stroke-linecap="round" stroke-linejoin="round"></path>
            <path d="M78.0713525,87.1346798 C77.601588,87.9048856 76.9949446,88.5826995 76.2813525,89.1346798" id="Path" stroke="#FFFFFF" stroke-linecap="round" stroke-linejoin="round"></path>
            <path d="M50.7213525,33.3046798 C50.7213525,33.3046798 43.1513525,29.2046798 49.4613525,26.0546798 C55.7713525,22.9046798 67.4613525,32.6746798 70.2813525,41.8246798 C73.1013525,50.9746798 70.9113525,61.3946798 75.0213525,68.6446798 C76.9613525,72.0946798 79.4813525,77.8146798 79.2913525,82.6446798" id="Path" stroke="#FFFFFF" stroke-linecap="round" stroke-linejoin="round"></path>
            <path d="M45.0913525,27.6946798 C44.8513525,26.8246798 45.3313525,25.5746798 47.5613525,23.8446798 C53.2413525,19.4246798 63.6613525,21.6346798 69.0213525,27.3146798 C74.3813525,32.9946798 76.2813525,39.9346798 76.9113525,48.1346798 C77.5413525,56.3346798 78.8013525,61.4146798 83.2513525,66.4146798 C87.7013525,71.4146798 90.1913525,76.8246798 85.7713525,83.1346798" id="Path" stroke="#FFFFFF" stroke-linecap="round" stroke-linejoin="round"></path>
            <path d="M44.7213525,33.3046798 C44.7213525,33.3046798 35.8913525,29.5246798 40.9413525,24.7846798" id="Path" stroke="#FFFFFF" stroke-linecap="round" stroke-linejoin="round"></path>
            <path d="M33.6613525,84.0646798 C34.344938,85.0684747 35.205653,85.9393556 36.2013525,86.6346798" id="Path" stroke="#FFFFFF" stroke-linecap="round" stroke-linejoin="round"></path>
            <path d="M31.7913525,64.8646798 C31.7913525,64.8646798 29.5713525,74.2946798 32.2113525,81.2646798" id="Path" stroke="#FFFFFF" stroke-linecap="round" stroke-linejoin="round"></path>
            <path d="M77.6113525,30.4146798 C80.0972647,34.5784864 81.6782507,39.2192255 82.2513525,44.0346798 C83.5113525,55.3946798 80.0413525,59.1846798 85.4113525,65.1746798 C87.7554859,67.6589144 89.1013241,70.9202577 89.1913525,74.3346798" id="Path" stroke="#FFFFFF" stroke-linecap="round" stroke-linejoin="round"></path>
            <path d="M73.7513525,25.1046798 C73.7513525,25.1046798 74.2113525,25.5746798 74.9113525,26.4646798" id="Path" stroke="#FFFFFF" stroke-linecap="round" stroke-linejoin="round"></path>
        </g>
    </g>
</svg>